<svg xmlns="http://www.w3.org/2000/svg" width="42" height="40" viewBox="0 0 42 40">
  <path fill="#9588A5" fill-rule="evenodd" d="M15.3989318,32.7573539 L15.3989318,32.2380524 L15.3989318,31.40717 C15.3989318,29.3299641 15.6988725,27.4604787 16.1987736,25.7987139 C16.7986549,24.1369492 17.5984967,22.5790447 18.7982593,21.0211402 C19.3981406,20.2941181 20.5979032,19.0477946 22.297567,17.4898901 C23.9972307,15.9319856 25.2969735,14.5818017 26.1967955,13.5431988 C25.5969142,13.8547797 24.9970329,14.0625003 24.3971516,14.1663606 C23.7972703,14.2702209 23.1973889,14.3740812 22.5975076,14.3740812 C21.6976857,14.3740812 20.6978835,14.2702209 19.598101,14.0625003 C18.3983384,13.8547797 17.6984769,13.7509194 17.3985362,13.7509194 C16.398734,13.7509194 15.5988923,14.0625003 15.1989714,14.685662 C14.6990703,15.3088238 14.4991099,16.3474268 14.4991099,17.801471 L14.4991099,18.6323534 L14.4991099,19.1516549 L10,19.1516549 L10,7.41544119 L14.5990901,7.41544119 L14.5990901,10.0119486 C15.1989714,8.97334566 15.8988329,8.24632358 16.6986747,7.72702209 C17.5984967,7.2077206 18.5982989,7 19.6980813,7 C20.9978241,7 22.4975274,7.31158089 24.1971911,8.03860298 C25.8968549,8.76562507 26.8966571,9.07720596 27.2965779,9.07720596 C27.6964988,9.07720596 28.0964197,8.97334566 28.2963801,8.76562507 C28.4963406,8.55790447 28.5963208,8.24632358 28.5963208,7.83088238 L28.5963208,7.51930149 L32.0956285,7.51930149 L32.0956285,7.83088238 L32.0956285,8.35018387 C32.0956285,10.0119486 30.8958658,12.7123164 28.5963208,16.5551474 C28.2963801,17.0744489 28.0964197,17.4898901 27.8964592,17.801471 C26.2967757,20.605699 25.0970131,22.9944859 24.597112,25.1755521 C24.0972109,27.3566184 23.69729,29.5376847 23.69729,32.0303318 L23.69729,32.9650745 L15.3989318,32.9650745 L15.3989318,32.7573539 Z"/>
</svg>
