<svg xmlns="http://www.w3.org/2000/svg" width="66" height="32" viewBox="0 0 66 32">
  <g fill="#FF3250" fill-rule="evenodd">
    <path d="M58.4652251 12.5797171C56.9775399 16.1661865 54.1892576 18.724481 52.1771301 18.1337645 50.1641751 17.5424738 49.8757236 14.0761988 51.3648154 10.4905499 52.8526661 6.90440879 55.6407829 4.34398113 57.6535724 4.93560007 59.6656999 5.52795741 59.9534068 8.99349394 58.4652251 12.5797171M59.0242552.0653890298C54.3662507-.618775487 48.8908841 4.15052149 46.7623334 10.4171206 44.6360995 16.6845401 46.5088832 22.5319767 51.1667222 23.215649 55.8258851 23.8994443 61.3022447 19.1320753 63.4302989 12.8639174 65.557443 6.59649784 63.6832526.749389459 59.0242552.0653890298M13.3536688 22.7131297L10.5895482 24.0369746 10.3016759 13.9691315C10.3034135 13.4943431 9.80280194 13.1927495 9.42258539 13.5000041L8.16227715 14.3753311C7.72728294 14.7158135 7.44669222 15.1112653 7.47648068 15.887155L8.04692963 27.0830204C8.07208432 28.0888792 8.64767178 28.480475 9.34861072 28.1672312L13.4182932 26.501739C13.985515 26.3077871 14.1966821 25.7571901 14.2566727 25.1658993L14.3491824 23.389254C14.3603531 22.90019 14.0366519 22.4121925 13.3536688 22.7131297M18.0127489 8.4494605L16.4892348 9.23823105C16.1009092 9.43792603 15.8352127 9.83665964 15.7967359 10.5327205L15.4518518 24.5725329C15.4346407 25.2754034 15.698765 25.6724141 16.2283376 25.5176792L17.4686131 25.134616C18.1629324 24.901283 18.3075719 24.5237987 18.3643354 23.7726864L19.1042476 9.35678456C19.1218724 8.59837027 18.6926704 8.09363588 18.0127489 8.4494605M30.8153312 3.35928962L28.8142089 3.98807447C28.3995701 4.12566218 28.0694974 4.58108815 28.0077691 5.03585778L26.7912417 14.9991933 24.2053554 7.12272775C23.9700266 6.39581833 23.3768225 5.99823334 22.8864714 6.2021946L21.7406088 6.69421219C21.1608096 6.95166611 20.7905225 7.59054236 20.7351656 8.43428237L19.7173106 23.5861676C19.6924869 24.0275641 19.9879718 24.3663236 20.3888748 24.2772239L22.1008836 23.8621635C22.5050137 23.7559986 22.7726961 23.3878592 22.8053806 22.9817416L23.4826543 14.6389383 25.7174505 21.9886817C25.8509194 22.5633995 26.2953466 23.0700209 26.8352624 22.9796085L28.1270057 22.7607152C28.6171913 22.6899113 28.9295564 22.2158614 29.0376223 21.530056L31.6782862 4.05863227C31.7583014 3.58540275 31.214993 3.24048998 30.8153312 3.35928962M44.4651469 8.50328133L39.6498428 9.0693846C39.0712848 9.14913132 38.5409675 9.6166998 38.4266129 10.1900229L38.0531815 12.2859177C37.9279045 12.9002629 38.121033 13.3220508 38.7395572 13.2562516L40.7220618 13.0459729C40.4371683 14.7537998 38.8750947 17.4060347 37.0983787 17.4345039 35.0952705 17.4669113 34.5434393 14.765286 35.390259 11.7101333 36.1470513 8.87420204 38.3284765 5.75571142 40.5349737 5.44443666 41.2776992 5.33868201 41.8728064 5.6154983 42.2808255 6.07830824 42.627861 6.47179103 43.1642188 6.39081365 43.4581315 6.03638378L45.2913628 4.04837677C45.6292136 3.67007211 45.8029796 2.85611406 45.3386934 2.31659303 44.2951044 1.1035732 42.8292641.577753511 41.0132439.970579954 37.0925038 1.81399178 32.9161621 6.95593239 31.5923135 12.2394809 30.1805888 17.5227012 31.9218896 22.0419282 35.7255446 22.0967335 39.9313437 22.149816 43.9518752 17.0980417 45.5539977 10.4793099L45.6993819 9.82894751C45.8356641 9.17554947 45.3951259 8.35174615 44.4651469 8.50328133M2.31966024 22.6424079C2.21846223 21.8049032 3.31624961 20.6513652 4.50621572 20.529612 4.8926382 20.497779 5.25291304 20.3408289 5.43056809 19.4943814L5.58695748 18.7248091C5.72199849 18.0883122 5.63023349 17.6981111 5.2092233 17.6361679 4.72168556 17.574635 3.69994149 17.8448878 2.67232247 18.6487544.931931874 20.0094534-.214261751 22.0412718.0336444071 24.1327527.43512661 27.420582 4.07924784 24.8302083 4.28578114 26.5137502 4.40328005 27.4721056 3.36291819 28.658215 1.96501211 28.6193262 1.53572735 28.5943848 1.26680378 28.8117192 1.08650087 29.4388632L.808888998 30.4060794C.576208051 31.2004289.792753584 31.4394229 1.07144115 31.5528897 1.57850688 31.7480723 2.73090643 31.732566 3.96812034 30.9469951 6.03403257 29.6356046 7.198513 27.2550173 6.94133932 25.2008008 6.44651996 21.2474145 2.51096833 24.2258725 2.31966024 22.6424079M65.1019278 1.32615844L64.9040001 1.32615844 64.9040001.976651206 65.0684158.976651206C65.1312198.976651206 65.1603463.982148151 65.185501.993224084 65.2467328 1.01939611 65.2774315 1.07469373 65.2774315 1.14525153 65.2774315 1.25436998 65.2091663 1.32615844 65.1019278 1.32615844L65.1019278 1.32615844zM65.2412716 1.40762809C65.349834 1.37177488 65.4167753 1.26405117 65.4167753 1.13959049 65.4167753 1.01537595 65.355378.92545578 65.2620408.884105628 65.2217436.866138003 65.1743303.857851563 65.0781798.857851563L64.813559.857851563C64.7827776.857851563 64.7675524.873029694 64.7675524.903468001L64.7675524 1.78740954C64.7675524 1.81784785 64.7827776 1.83319007 64.813559 1.83319007L64.8580762 1.83319007C64.8887749 1.83319007 64.9040001 1.81784785 64.9040001 1.78740954L64.9040001 1.44495808 65.1145052 1.44495808 65.3067235 1.80127497C65.3178941 1.82350888 65.3346088 1.83319007 65.3610874 1.83319007L65.4167753 1.83319007C65.4515285 1.83319007 65.4654298 1.81095616 65.4473084 1.7791231L65.2412716 1.40762809z"/>
    <path d="M65.0817379,2.0415817 C64.6971358,2.0415817 64.3841915,1.73137352 64.3841915,1.34995119 C64.3841915,0.968446811 64.6971358,0.658238628 65.0817379,0.658238628 C65.46634,0.658238628 65.7792015,0.968446811 65.7792015,1.34995119 C65.7792015,1.73137352 65.46634,2.0415817 65.0817379,2.0415817 M65.0817379,0.543130963 C64.6330906,0.543130963 64.2679338,0.90510888 64.2679338,1.34995119 C64.2679338,1.79487554 64.6330906,2.15668937 65.0817379,2.15668937 C65.5303851,2.15668937 65.8954592,1.79487554 65.8954592,1.34995119 C65.8954592,0.90510888 65.5303851,0.543130963 65.0817379,0.543130963"/>
  </g>
</svg>
