<svg xmlns="http://www.w3.org/2000/svg" width="42" height="40" viewBox="0 0 42 40">
  <path fill="#9588A5" fill-rule="evenodd" d="M30.2577361,7.53069649 L11.8009951,7.53069649 C10.878158,7.53069649 10.1231095,8.2855352 10.1231095,9.20811585 L10.1231095,31.8532771 C10.1231095,32.7758578 10.878158,33.5306965 11.8009951,33.5306965 L30.2577361,33.5306965 C31.1805732,33.5306965 31.9356217,32.7758578 31.9356217,31.8532771 L31.9356217,9.20811585 C31.9356217,8.2855352 31.1805732,7.53069649 30.2577361,7.53069649 L30.2577361,7.53069649 Z M15.1567662,26.8210191 L10.9620523,26.8210191 L10.9620523,22.6274707 L15.1567662,22.6274707 L15.1567662,26.8210191 L15.1567662,26.8210191 Z M15.1567662,21.788761 L10.9620523,21.788761 L10.9620523,17.5952126 L15.1567662,17.5952126 L15.1567662,21.788761 L15.1567662,21.788761 Z M15.1567662,16.7565029 L10.9620523,16.7565029 L10.9620523,12.5629546 L15.1567662,12.5629546 L15.1567662,16.7565029 L15.1567662,16.7565029 Z M20.1904228,31.8532771 L15.995709,31.8532771 L15.995709,27.6597288 L20.1904228,27.6597288 L20.1904228,31.8532771 L20.1904228,31.8532771 Z M20.1904228,21.788761 L15.995709,21.788761 L15.995709,17.5952126 L20.1904228,17.5952126 L20.1904228,21.788761 L20.1904228,21.788761 Z M25.2240795,26.8210191 L21.0293656,26.8210191 L21.0293656,22.6274707 L25.2240795,22.6274707 L25.2240795,26.8210191 L25.2240795,26.8210191 Z M25.2240795,16.7565029 L21.0293656,16.7565029 L21.0293656,12.5629546 L25.2240795,12.5629546 L25.2240795,16.7565029 L25.2240795,16.7565029 Z M30.2577361,31.8532771 L26.0630223,31.8532771 L26.0630223,27.6597288 L30.2577361,27.6597288 L30.2577361,31.8532771 L30.2577361,31.8532771 Z M30.2577361,26.8210191 L26.0630223,26.8210191 L26.0630223,22.6274707 L30.2577361,22.6274707 L30.2577361,26.8210191 L30.2577361,26.8210191 Z M30.2577361,21.788761 L26.0630223,21.788761 L26.0630223,17.5952126 L30.2577361,17.5952126 L30.2577361,21.788761 L30.2577361,21.788761 Z"/>
</svg>
