<svg xmlns="http://www.w3.org/2000/svg" width="42" height="40" viewBox="0 0 42 40">
  <path fill="#9588A5" fill-rule="evenodd" d="M29.4648166,6.09442747 C24.1283895,2.98901206 16.243221,6.73143576 11.8625719,14.2959092 C7.48192273,21.9400087 8.19875623,30.6192467 13.5351834,33.645036 C18.8716105,36.7504515 26.756779,33.0080278 31.1374281,25.4435543 C35.5180773,17.7994548 34.8012438,9.12021685 29.4648166,6.09442747 L29.4648166,6.09442747 Z M25.7213528,8.5628346 C26.27889,7.60732216 27.4736125,7.28881802 28.4293905,7.84620027 C29.3851685,8.40358253 29.7037611,9.59797307 29.146224,10.5534855 C28.5886868,11.5089979 27.3939643,11.8275021 26.4381863,11.2701198 C25.4824083,10.7127376 25.1638157,9.51834703 25.7213528,8.5628346 L25.7213528,8.5628346 Z M18.7919623,8.64246063 C19.3494995,7.6869482 20.544222,7.36844405 21.5,7.92582631 C22.455778,8.48320856 22.7743707,9.67759911 22.2168335,10.6331115 C21.6592963,11.588624 20.4645738,11.9071281 19.5087958,11.3497459 C18.5530178,10.7923636 18.2344252,9.59797307 18.7919623,8.64246063 L18.7919623,8.64246063 Z M12.5794054,14.6940394 C13.1369425,13.738527 14.331665,13.4200228 15.287443,13.9774051 C16.243221,14.5347873 16.5618137,15.7291779 16.0042765,16.6846903 C15.4467394,17.6402027 14.2520169,17.9587069 13.2962389,17.4013246 C12.3404609,16.8439424 12.0218682,15.6495518 12.5794054,14.6940394 L12.5794054,14.6940394 Z M11.1457384,25.8416845 C10.1899604,25.2843022 9.87136772,24.0899117 10.4289049,23.1343992 C10.986442,22.1788868 12.1811645,21.8603827 13.1369425,22.4177649 C14.0927205,22.9751472 14.4113132,24.1695377 13.853776,25.1250502 C13.2962389,26.0805626 12.1015164,26.3990667 11.1457384,25.8416845 L11.1457384,25.8416845 Z M17.2786472,31.1766289 C16.72111,32.1321414 15.5263875,32.4506455 14.5706095,31.8932632 C13.6148315,31.335881 13.2962389,30.1414904 13.853776,29.185978 C14.4113132,28.2304656 15.6060357,27.9119614 16.5618137,28.4693437 C17.5175917,29.0267259 17.8361843,30.2211165 17.2786472,31.1766289 L17.2786472,31.1766289 Z M24.2080377,31.0970029 C23.6505005,32.0525153 22.455778,32.3710195 21.5,31.8136372 C20.544222,31.256255 20.2256293,30.0618644 20.7831665,29.106352 C21.3407037,28.1508395 22.5354262,27.8323354 23.4912042,28.3897176 C24.4469822,28.9470999 24.7655748,30.1414904 24.2080377,31.0970029 L24.2080377,31.0970029 Z M17.5175917,26.7971969 C14.8892022,25.2843022 14.4909614,20.9048702 16.6414619,17.0828205 C18.7919623,13.2607707 22.7743707,11.4293719 25.4824083,12.9422666 C28.1107978,14.4551613 28.5090386,18.8345933 26.3585381,22.656643 C24.2080377,26.4786928 20.1459812,28.3100916 17.5175917,26.7971969 L17.5175917,26.7971969 Z M30.5002428,25.0454241 C29.9427056,26.0009366 28.7479831,26.3194407 27.7922051,25.7620584 C26.8364271,25.2046762 26.5178345,24.0102856 27.0753716,23.0547732 C27.6329088,22.0992608 28.8276313,21.7807566 29.7834093,22.3381389 C30.6595391,22.8955211 30.9781318,24.0899117 30.5002428,25.0454241 L30.5002428,25.0454241 Z M29.8630575,17.3216986 C28.9072795,16.7643163 28.5886868,15.5699258 29.146224,14.6144134 C29.7037611,13.6589009 30.8984836,13.3403968 31.8542616,13.897779 C32.8100396,14.4551613 33.1286323,15.6495518 32.5710951,16.6050643 C32.013558,17.5605767 30.8188355,17.8790808 29.8630575,17.3216986 L29.8630575,17.3216986 Z"/>
</svg>
