<svg xmlns="http://www.w3.org/2000/svg" width="42" height="40" viewBox="0 0 42 40">
  <path fill="#9588A5" fill-rule="evenodd" d="M17.2550119,11.9999762 L25.2550215,11.9999762 L25.2550215,9.99997377 L17.2550119,9.99997377 L17.2550119,11.9999762 Z M35.2550334,21.9999881 L35.2550334,29.499997 C35.2550334,30.8749987 34.130032,32 32.7550304,32 L9.75500298,32 C8.38000134,32 7.255,30.8749987 7.255,29.499997 L7.255,21.9999881 L17.7550125,21.9999881 L17.7550125,24.4999911 C17.7550125,25.0468667 18.2081381,25.4999923 18.7550137,25.4999923 L23.7550197,25.4999923 C24.3018953,25.4999923 24.7550209,25.0468667 24.7550209,24.4999911 L24.7550209,21.9999881 L35.2550334,21.9999881 Z M23.2550191,21.9999881 L23.2550191,23.9999905 L19.2550143,23.9999905 L19.2550143,21.9999881 L23.2550191,21.9999881 Z M35.2550334,14.4999791 L35.2550334,20.4999863 L7.255,20.4999863 L7.255,14.4999791 C7.255,13.1249775 8.38000134,11.9999762 9.75500298,11.9999762 L15.2550095,11.9999762 L15.2550095,9.49997318 C15.2550095,8.67184719 15.9268853,7.99997139 16.7550113,7.99997139 L25.755022,7.99997139 C26.583148,7.99997139 27.2550238,8.67184719 27.2550238,9.49997318 L27.2550238,11.9999762 L32.7550304,11.9999762 C34.130032,11.9999762 35.2550334,13.1249775 35.2550334,14.4999791 Z"/>
</svg>
